<svg width="467" height="195" viewBox="0 0 467 195" fill="none" xmlns="http://www.w3.org/2000/svg">
  <defs>
    <linearGradient id="velocity-grad" x1="0" y1="0" x2="0" y2="1">
      <stop offset="0%" stop-color="#7aa2f7" stop-opacity="0.32" />
      <stop offset="100%" stop-color="#bb9af7" stop-opacity="0.0" />
    </linearGradient>
  </defs>

  <rect x="0.5" y="0.5" width="466" height="194" rx="8" fill="#1a1b26" stroke="#414868" stroke-width="1.5" />
  
  <!-- Header -->
  <g transform="translate(24, 32)">
    <text fill="#7aa2f7" font-family="-apple-system, BlinkMacSystemFont, 'Segoe UI', Roboto, sans-serif" font-size="16" font-weight="700">
      📈 Commit Velocity Wave • @DeepakPM2007
    </text>
    <text y="18" fill="#8b949e" font-family="-apple-system, BlinkMacSystemFont, 'Segoe UI', Roboto, sans-serif" font-size="11">
      Monthly Engineering Momentum &amp; Volume Curve
    </text>
  </g>

  <!-- Area Fill -->
  <path d="M 32 159 C 38.1,159.0 56.4,159.0 68.6,159.0 C 80.8,159.0 93.1,159.0 105.3,159.0 C 117.5,159.0 129.7,159.0 141.9,159.0 C 154.1,159.0 166.3,164.9 178.5,159.0 C 190.8,153.1 203.0,139.2 215.2,123.4 C 227.4,107.5 239.6,71.9 251.8,64.0 C 264.0,56.1 276.2,69.9 288.5,75.9 C 300.7,81.8 312.9,85.8 325.1,99.6 C 337.3,113.5 349.5,149.1 361.7,159.0 C 373.9,168.9 386.2,159.0 398.4,159.0 C 410.6,159.0 428.9,159.0 435.0,159.0 L 435 159 L 32 159 Z" fill="url(#velocity-grad)" />

  <!-- Wave Stroke -->
  <path d="M 32 159 C 38.1,159.0 56.4,159.0 68.6,159.0 C 80.8,159.0 93.1,159.0 105.3,159.0 C 117.5,159.0 129.7,159.0 141.9,159.0 C 154.1,159.0 166.3,164.9 178.5,159.0 C 190.8,153.1 203.0,139.2 215.2,123.4 C 227.4,107.5 239.6,71.9 251.8,64.0 C 264.0,56.1 276.2,69.9 288.5,75.9 C 300.7,81.8 312.9,85.8 325.1,99.6 C 337.3,113.5 349.5,149.1 361.7,159.0 C 373.9,168.9 386.2,159.0 398.4,159.0 C 410.6,159.0 428.9,159.0 435.0,159.0" fill="none" stroke="#7aa2f7" stroke-width="2.5" stroke-linecap="round" />

  <!-- Markers and Labels -->
  <text x="32" y="177" text-anchor="middle" fill="#8b949e" font-family="-apple-system, BlinkMacSystemFont, 'Segoe UI', Roboto, sans-serif" font-size="10">Jan</text><text x="105.27272727272728" y="177" text-anchor="middle" fill="#8b949e" font-family="-apple-system, BlinkMacSystemFont, 'Segoe UI', Roboto, sans-serif" font-size="10">Mar</text><text x="178.54545454545456" y="177" text-anchor="middle" fill="#8b949e" font-family="-apple-system, BlinkMacSystemFont, 'Segoe UI', Roboto, sans-serif" font-size="10">May</text>
        <circle cx="215.1818181818182" cy="123.375" r="3" fill="#7aa2f7" stroke="#131620" stroke-width="1.5">
          <title>Jun: 6 contributions</title>
        </circle><text x="251.8181818181818" y="177" text-anchor="middle" fill="#8b949e" font-family="-apple-system, BlinkMacSystemFont, 'Segoe UI', Roboto, sans-serif" font-size="10">Jul</text>
        <circle cx="251.8181818181818" cy="64" r="3" fill="#7aa2f7" stroke="#131620" stroke-width="1.5">
          <title>Jul: 16 contributions</title>
        </circle>
        <circle cx="288.45454545454544" cy="75.875" r="3" fill="#7aa2f7" stroke="#131620" stroke-width="1.5">
          <title>Aug: 14 contributions</title>
        </circle><text x="325.0909090909091" y="177" text-anchor="middle" fill="#8b949e" font-family="-apple-system, BlinkMacSystemFont, 'Segoe UI', Roboto, sans-serif" font-size="10">Sep</text>
        <circle cx="325.0909090909091" cy="99.625" r="3" fill="#7aa2f7" stroke="#131620" stroke-width="1.5">
          <title>Sep: 10 contributions</title>
        </circle><text x="398.3636363636364" y="177" text-anchor="middle" fill="#8b949e" font-family="-apple-system, BlinkMacSystemFont, 'Segoe UI', Roboto, sans-serif" font-size="10">Nov</text><text x="435" y="177" text-anchor="middle" fill="#8b949e" font-family="-apple-system, BlinkMacSystemFont, 'Segoe UI', Roboto, sans-serif" font-size="10">Dec</text>

  <!-- Personal Branding Watermark -->
  <a href="https://github.com/Tharun4743/github-profile-visualizer" target="_blank">
    <text x="443" y="185" text-anchor="end" fill="#565f89" font-family="-apple-system, BlinkMacSystemFont, 'Segoe UI', Roboto, sans-serif" font-size="9" font-weight="600" opacity="0.85">⚡ by @Tharun4743</text>
  </a>
</svg>